<?xml version="1.0" encoding="utf-8"?>
<!-- Generator: Adobe Illustrator 24.0.1, SVG Export Plug-In . SVG Version: 6.00 Build 0)  -->
<svg version="1.1" id="Layer_1" xmlns="http://www.w3.org/2000/svg" xmlns:xlink="http://www.w3.org/1999/xlink" x="0px" y="0px"
	 width="100px" height="100px" viewBox="0 0 100 100" style="enable-background:new 0 0 100 100;" xml:space="preserve">
<path d="M9.6,50c0-22.4,18.1-40.5,40.5-40.5S90.6,27.6,90.6,50S72.4,90.5,50.1,90.5S9.6,72.4,9.6,50z M47.3,31.4L25.2,53.5
	c-1.5,1.5-1.5,4,0,5.5l2.8,2.8c1.5,1.5,4,1.5,5.5,0l16.6-16.6l16.6,16.6c1.5,1.5,4,1.5,5.5,0l2.8-2.8c1.5-1.5,1.5-4,0-5.5L52.9,31.4
	C51.3,29.9,48.8,29.9,47.3,31.4z"/>
<g>
</g>
<g>
</g>
<g>
</g>
<g>
</g>
<g>
</g>
<g>
</g>
</svg>
