<?xml version="1.0" encoding="utf-8"?>
<!-- Generator: Adobe Illustrator 24.0.1, SVG Export Plug-In . SVG Version: 6.00 Build 0)  -->
<svg version="1.1" id="Layer_1" xmlns="http://www.w3.org/2000/svg" xmlns:xlink="http://www.w3.org/1999/xlink" x="0px" y="0px"
	 width="100px" height="100px" viewBox="0 0 100 100" style="enable-background:new 0 0 100 100;" xml:space="preserve">
<path d="M87.6,67.7v-57c0-2.3-1.8-4.1-4-4.1H28.4c-8.9,0-16.2,7.3-16.2,16.3v54.3c0,9,7.2,16.3,16.2,16.3h55.2c2.2,0,4-1.8,4-4.1
	v-2.7c0-1.3-0.6-2.4-1.5-3.2c-0.7-2.6-0.7-10.1,0-12.7C87,70.1,87.6,69,87.6,67.7L87.6,67.7z M33.8,29.3c0-0.6,0.5-1,1-1h35.7
	c0.6,0,1,0.5,1,1v3.4c0,0.6-0.5,1-1,1H34.8c-0.6,0-1-0.5-1-1V29.3z M33.8,40.2c0-0.6,0.5-1,1-1h35.7c0.6,0,1,0.5,1,1v3.4
	c0,0.6-0.5,1-1,1H34.8c-0.6,0-1-0.5-1-1V40.2z M76.4,82.6h-48c-3,0-5.4-2.4-5.4-5.4c0-3,2.4-5.4,5.4-5.4h48
	C76.1,74.7,76.1,79.7,76.4,82.6z"/>
<g>
</g>
<g>
</g>
<g>
</g>
<g>
</g>
<g>
</g>
</svg>
