<?xml version="1.0" encoding="utf-8"?>
<!-- Generator: Adobe Illustrator 24.0.1, SVG Export Plug-In . SVG Version: 6.00 Build 0)  -->
<svg version="1.1" id="Layer_1" xmlns="http://www.w3.org/2000/svg" xmlns:xlink="http://www.w3.org/1999/xlink" x="0px" y="0px"
	 width="100px" height="100px" viewBox="0 0 100 100" style="enable-background:new 0 0 100 100;" xml:space="preserve">
<g>
	<path d="M88.7,72.1c-1.2,2.2-4.4,3.6-7,4.7C78.3,78.2,74.9,79,71,79c-5.4,0-10.2-1.7-15.1-3c-3.5-1-6.9-2.2-10.1-3.7
		c-9.8-4.6-21.6-13.6-27.6-21.1c-2-2.4-3.5-5-4.8-7.7c-1.8-3.7-4-7.4-4-11.5c0-2.9,1.1-5.6,2.9-8.2c1.4-2,3.3-4.4,6.1-5.4
		c1.9-0.7,5.9-1.4,8-1.4c0.4,0,0.8,0,1.2,0.1c1.2,0.3,2.5,2.5,3,3.3c1.8,2.5,3.6,5.1,5.5,7.5c0.9,1.1,2.6,2.6,2.6,3.9
		c0,2.7-10.4,6.6-10.4,9c0,1.2,1.4,2.7,2.2,3.8c5.8,8,13.1,13.5,23.5,18c1.4,0.6,3.4,1.7,4.9,1.7c3.1,0,8.2-8,11.7-8
		c1.8,0,3.6,1.3,5.1,2c3.2,1.5,6.6,2.8,9.8,4.2c1.2,0.4,4,1.4,4.4,2.3c0.2,0.3,0.2,0.6,0.2,0.9C90.5,67.6,89.6,70.7,88.7,72.1z"/>
</g>
<g>
</g>
<g>
</g>
<g>
</g>
<g>
</g>
<g>
</g>
</svg>
