<?xml version="1.0" encoding="utf-8"?>
<!-- Generator: Adobe Illustrator 24.0.1, SVG Export Plug-In . SVG Version: 6.00 Build 0)  -->
<svg version="1.1" id="Layer_1" xmlns="http://www.w3.org/2000/svg" xmlns:xlink="http://www.w3.org/1999/xlink" x="0px" y="0px"
	 width="100px" height="100px" viewBox="0 0 100 100" style="enable-background:new 0 0 100 100;" xml:space="preserve">
<path d="M76.3,74.3H23.7c-1.1,0-2,0.9-2,2v4c0,1.1,0.9,2,2,2h52.6c1.1,0,2-0.9,2-2v-4C78.3,75.2,77.4,74.3,76.3,74.3z M84.4,33.8
	c-3.3,0-6.1,2.7-6.1,6.1c0,0.9,0.2,1.7,0.6,2.5l-9.2,5.5c-1.9,1.2-4.5,0.5-5.6-1.5l-10.3-18c1.4-1.1,2.2-2.8,2.2-4.7
	c0-3.3-2.7-6.1-6.1-6.1s-6.1,2.7-6.1,6.1c0,1.9,0.9,3.6,2.2,4.7l-10.3,18c-1.1,2-3.7,2.6-5.6,1.5l-9.1-5.5c0.3-0.8,0.6-1.6,0.6-2.5
	c0-3.3-2.7-6.1-6.1-6.1s-6.1,2.7-6.1,6.1c0,3.3,2.7,6.1,6.1,6.1c0.3,0,0.7-0.1,1-0.1l9.1,24.4h48.5l9.1-24.4c0.3,0.1,0.6,0.1,1,0.1
	c3.3,0,6.1-2.7,6.1-6.1C90.4,36.5,87.7,33.8,84.4,33.8z"/>
<g>
</g>
<g>
</g>
<g>
</g>
<g>
</g>
<g>
</g>
<g>
</g>
</svg>
