
<!-- Generator: Adobe Illustrator 24.0.1, SVG Export Plug-In . SVG Version: 6.00 Build 0)  -->
<svg version="1.1"  xmlns="http://www.w3.org/2000/svg" xmlns:xlink="http://www.w3.org/1999/xlink" viewBox="0 0 100 100">
	<path d="M85.7,51.2c-0.2,0.3-0.6,0.4-1,0.5c0,0-0.1,0-0.1,0c-0.4,0-0.7-0.1-1-0.3L50,26L16.5,51.4c-0.3,0.2-0.7,0.4-1.2,0.3
		c-0.4,0-0.8-0.2-1-0.5l-3-3.3c-0.5-0.6-0.4-1.5,0.2-2l34.8-26.4c2-1.5,5.3-1.5,7.4,0l11.8,9V20c0-0.8,0.7-1.4,1.5-1.4h9.3
		c0.9,0,1.5,0.6,1.5,1.4v17.9l10.6,8c0.6,0.5,0.7,1.4,0.2,2L85.7,51.2z M77.9,72.1c0,1.5-1.4,2.8-3.1,2.8H56.2V58H43.8v16.9H25.2
		c-1.7,0-3.1-1.3-3.1-2.8V51c0-0.1,0-0.2,0-0.3L50,29.8l27.8,20.9c0,0.1,0,0.2,0,0.3V72.1z"/>

</svg>
