<?xml version="1.0" encoding="utf-8"?>
<!-- Generator: Adobe Illustrator 24.0.1, SVG Export Plug-In . SVG Version: 6.00 Build 0)  -->
<svg version="1.1" id="Layer_1" xmlns="http://www.w3.org/2000/svg" xmlns:xlink="http://www.w3.org/1999/xlink" x="0px" y="0px"
	 width="100px" height="100px" viewBox="0 0 100 100" style="enable-background:new 0 0 100 100;" xml:space="preserve">
<style type="text/css">
	.st0{fill:#C7B299;}
	.st1{fill:#FFFFFF;}
	.st2{fill:#736357;}
</style>
<g>
	<path class="st0" d="M50.3,45.2c-0.9,0.8-1.7,1.7-2.7,2.4c-4.1,3.2-9.5,2.7-12.9-1.3c-1.6-1.8-2.6-3.9-2.6-6.4
		c-0.1-1.9,0.7-3.5,1.9-4.9c0.5-0.5,0.4-0.8,0-1.3c-0.8-1.2-1.4-2.5-2.1-3.7c-0.3-0.5-0.1-1,0.2-1.5c3.1-3.9,7.1-6.6,11.8-7.9
		c4.4-1.2,8.8-1.2,13.2,0.2c4.9,1.6,8.8,4.5,11.6,8.9c0.3,0.4,0.3,1,0.4,1.5c0.1,1.2-0.2,2.4-1,3.3c-0.6,0.8-0.6,1.4-0.3,2.3
		c1.1,3.2,0.6,6.3-1.5,8.8C62.6,50,55.9,51,51.4,46.2C51,45.8,50.7,45.5,50.3,45.2z M60.7,35.6c-0.2-1.3-1-2.2-2-2.2
		c-0.9,0-1.8,0.8-2,1.9c-0.2,1,0.1,1.9,0.8,2.6c0.6,0.6,1.4,0.6,2.1,0.3C60.4,37.7,60.9,36.7,60.7,35.6z M41,39.2
		c0.8,0.3,1.4,0.1,1.9-0.5c1.1-1,0.9-3.3-0.3-4.1c-0.9-0.6-1.9-0.5-2.4,0.4C39.7,35.6,40.1,38.8,41,39.2z M49.7,31.3
		c-0.7,0.5-1.5,1-2.2,1.7c-0.9,0.8-0.7,1.5,0.4,2c1.4,0.5,2.7,0.4,4.1-0.1c0.2-0.1,0.4-0.3,0.6-0.5c0.3-0.3,0.4-0.7,0.1-1
		c-0.7-0.6-1.4-1.3-2.1-1.9C50.4,31.4,50.1,31.4,49.7,31.3z M52.8,24.9c-1.2-1.7-3.2-2.2-4.6-1.4c-1,0.6-1.7,2.5-1.2,3.7
		C48.1,24.5,50.1,23.9,52.8,24.9z M50.2,29.9c0.8-1.2,0.6-3.1-0.3-3.8C50,27.4,50.1,28.7,50.2,29.9z"/>
	<path class="st0" d="M23.1,45.5c1.5,1,3.1,1.4,4.8,0.6c0.5-0.3,0.8-0.2,1,0.4c0.2,0.7,0.6,1.3,0.9,1.9c0.1,0.2,0.1,0.6-0.1,0.7
		c-2,1.8-4.2,2.4-6.8,1.4c-2-0.7-3.1-2.2-3.2-4.3c-0.2-2.3,0.3-4.3,2-5.9c1.4-1.4,3.7-1.6,5.4-0.5c0.2,0.1,0.4,0.4,0.4,0.7
		c0.2,1.3,0.5,2.6,0.6,3.9c0,0.2-0.2,0.7-0.5,0.8c-1.2,0.7-2.6,0.9-4,0.5C23.4,45.6,23.2,45.5,23.1,45.5z"/>
	<path class="st0" d="M77.1,42c-1.2,0.4-2.3,0.8-3.6,0.5c-0.2,0-0.4-0.1-0.6-0.2c-0.7-0.2-1-0.6-0.9-1.4c0.1-1.1,0.1-2.2,0.1-3.2
		c0-0.6,0.2-0.9,0.6-1.2c2.6-1.6,5.6-0.7,6.9,2.1c0.7,1.5,1,3,0.8,4.6c-0.2,1.5-0.9,2.5-2.1,3.3c-2.3,1.5-5.1,1.4-7.2-0.2
		c-0.2-0.1-0.3-0.5-0.3-0.7c0.2-0.8,0.5-1.5,0.7-2.3c0.2-0.6,0.5-0.4,0.8-0.3C74,43.6,75.9,43.2,77.1,42z"/>
	<path class="st0" d="M71.6,69.6c0.4,3-0.9,5.4-3.3,6.3c-1.2,0.4-2,0.3-2.7-0.8c-1.4-2-1.5-4.3-0.9-6.6c0.2-1,0.7-1.9,1.2-2.7
		c0.8-1.2,1.7-1.3,2.9-0.6C70.5,66.2,71.2,68,71.6,69.6z"/>
	<path class="st0" d="M34,67.6c0.2,2.2-0.1,4.1-1.3,5.9c-0.7,1.1-1.6,1.3-2.8,0.9c-2.6-1-3.9-3.9-3.1-6.6c0.5-1.6,1.2-3.1,2.7-4
		c1.3-0.8,2.6-0.6,3.4,0.8C33.3,65.5,33.6,66.6,34,67.6z"/>
	<path class="st0" d="M26.4,17.8c-0.3-0.1-0.6-0.2-0.8-0.4c-0.4-0.3-0.8-0.7-1-1.1c-0.1-0.3-0.1-0.9,0.1-1.2
		c0.2-0.3,0.8-0.5,1.1-0.5c0.7,0.1,1.5,0.4,2.2,0.7c-0.2-0.5-0.3-1-0.4-1.4c-0.2-0.7-0.1-1.4,0.5-1.7c0.7-0.4,1.2,0.1,1.6,0.5
		c0.5,0.4,0.9,0.9,1.4,1.5c0.1-0.5,0.2-0.8,0.3-1.2c0.2-0.5,0.5-1.1,1.1-1.1c0.7,0,1.1,0.4,1.2,1c0.2,1.4,0.2,2.8,0.3,4.2
		c0,0.6-0.5,0.6-1,0.5c-1.3-0.3-1.3-0.3-1.1,1c0.1,0.8,0,1-0.9,0.8c-0.1,0-0.3-0.1-0.4-0.1c-0.7-0.1-0.9,0.1-0.7,0.8
		c0.1,0.4,0.3,0.9,0.4,1.3c0.1,0.5-0.1,0.9-0.7,0.8c-1.8-0.3-3.5-0.7-4.9-1.8c-0.8-0.6-0.6-1.6,0.3-2c0.4-0.2,0.9-0.3,1.3-0.4
		C26.3,18,26.3,17.9,26.4,17.8z"/>
	<path class="st0" d="M70,14.2c0.3-0.5,0.6-1.1,1-1.6c0.4-0.5,0.9-1,1.6-0.7c0.6,0.2,0.9,0.9,0.7,1.8c-0.1,0.5-0.2,0.9-0.4,1.4
		c0.7-0.3,1.3-0.7,2-0.9c0.5-0.2,1.1-0.2,1.5,0.3c0.4,0.6,0.3,1.2-0.1,1.7c-0.4,0.5-0.8,0.9-1.3,1.4c0.5,0.1,0.9,0.1,1.3,0.2
		c0.4,0.2,0.8,0.5,0.9,0.9c0.1,0.3-0.1,0.9-0.4,1.2c-1.3,1.1-2.9,1.8-4.6,2.2c-0.6,0.2-0.9-0.2-0.8-0.8c0.1-0.5,0.2-1,0.3-1.4
		c0.1-0.6-0.2-0.7-0.7-0.6c-1.4,0.3-1.4,0.3-1.5-1.1c0-0.6-0.3-0.7-0.8-0.5c-0.2,0.1-0.4,0.2-0.6,0.2c-0.5,0.2-0.8,0-0.8-0.5
		c-0.1-1.3-0.2-2.6-0.2-3.9c0-0.6,0.3-1.2,1-1.3c0.7-0.1,1,0.4,1.2,0.9c0.2,0.3,0.3,0.7,0.4,1.1C69.8,14.1,69.9,14.1,70,14.2z"/>
</g>
<g>
	<path d="M60.7,35.6c0.1,1.1-0.3,2.2-1.1,2.6c-0.7,0.4-1.5,0.3-2.1-0.3c-0.8-0.7-1-1.6-0.8-2.6c0.2-1.1,1.1-1.9,2-1.9
		C59.7,33.4,60.5,34.3,60.7,35.6z"/>
	<path d="M40.1,35c0.6-0.8,1.6-1,2.4-0.4c1.2,0.8,1.4,3.1,0.3,4.1c-0.6,0.5-1.2,0.8-1.9,0.5C40.1,38.8,39.5,35.9,40.1,35z"/>
	<path d="M49.7,31.3c0.4,0.1,0.7,0.1,0.8,0.2c0.7,0.6,1.5,1.2,2.1,1.9c0.3,0.3,0.3,0.7-0.1,1c-0.2,0.2-0.4,0.4-0.6,0.5
		c-1.3,0.5-2.7,0.6-4.1,0.1c-1.2-0.4-1.3-1.1-0.4-2C48.2,32.3,49,31.8,49.7,31.3z M49.3,34.9c1,0.2,1.8,0.1,2.6-0.3
		c0.2-0.1,0.5-0.6,0.5-0.8c-0.1-0.5-0.6-0.4-0.9-0.2c-0.6,0.3-1.2,0.6-1.8,0.9C49.5,34.6,49.5,34.7,49.3,34.9z"/>
	<path d="M52.8,24.9c-2.7-1.1-4.7-0.4-5.8,2.3c-0.5-1.2,0.2-3.1,1.2-3.7C49.6,22.7,51.6,23.2,52.8,24.9z"/>
	<path d="M50.2,29.9c-0.1-1.2-0.2-2.5-0.3-3.8C50.9,26.9,51.1,28.7,50.2,29.9z"/>
</g>
<path class="st1" d="M49.5,34.9c0.1-0.2,0.2-0.3,0.3-0.3c0.6-0.3,1.2-0.6,1.8-0.9c0.4-0.2,0.8-0.3,0.9,0.2c0.1,0.2-0.2,0.7-0.5,0.8
	C51.3,35,50.4,35.1,49.5,34.9z"/>
<g>
	<g>
		<path class="st2" d="M18.7,52.9c2.2,1.9,4.8,2.2,7.4,1.3c1.8-0.6,3.5-1.6,5.2-2.4c0.3-0.2,0.6-0.4,0.9,0c1.7,2,3.7,3.5,5.9,4.7
			c0.4,0.2,0.4,0.5,0.2,0.8c-0.4,0.6-0.8,1.3-1.4,1.8c-1.4,1.2-3.1,1.6-4.8,2c-1.5,0.3-3,0.5-4.2,1.6c-2,2-2.8,4.5-2.6,7.3
			c0.2,3.3,2.5,5.1,5.2,6.4c1.1,0.5,2.1,0.2,2.9-0.9c0.5-0.7,0.9-1.5,1.2-2.3c0.6-1.3,1.4-2.3,2.6-3.1c2.5-1.7,4.7-3.6,6-6.4
			c0.1-0.1,0.4-0.3,0.6-0.2c1.1,0.3,2.2,0.8,3.3,1.1c0.4,0.1,0.4,0.3,0.3,0.7c-1,3.3-0.3,6.5,1.2,9.4c0.8,1.6,1.7,3.2,2.5,4.9
			c0.3,0.7,0.5,1.5,0.7,2.3c0.2,0.5,0.5,0.9,0.7,1.4l0,0c1,2.1-0.7,2.8-2,3.1c-0.2,0.1-0.4,0.1-0.6,0c-0.2-0.1-0.5-0.2-0.7-0.3
			c-0.5-0.5-0.3-2.9-0.2-3.1c0.1-0.5,0.2-0.9,0.2-1.4c0.1-1-0.5-1.6-1.5-1.3c-1.3,0.4-1.8,1.4-1.9,2.7c0,0.2-0.1,1.4-0.1,1.5
			c0,1.6,1.1,3.2,2.6,3.8c2.3,0.9,5.7,0.7,7.5-2.6l0,0c0,0,0,0,0,0c0,0,0-0.1,0-0.2c0,0,0.1-0.5,0.1-0.8l0,0c0-0.1,0-0.1,0-0.2
			c0,0,0,0,0,0c0-0.1,0-0.1,0-0.2c0,0,0,0,0,0c0-0.1,0-0.1,0-0.2c0,0,0,0,0,0c0-0.3,0-0.5,0-0.8l0,0c0-0.1,0-0.1,0-0.2l0,0
			c0-0.3,0-0.7-0.1-1c0-0.1,0-0.1-0.1-0.2c-0.2-0.6-0.2-1.3-0.6-1.9c-1-1.6-1.9-3.3-3.1-4.8c-2.2-3.1-3.1-6.3-1.8-10
			c0.1-0.3,0.4-0.6,0.7-0.7c1.2-0.2,2.4-0.4,3.6-0.6c0.4-0.1,0.7,0,0.8,0.4c0.2,0.5,0.5,1,0.7,1.5c1.1,2,2.7,3.6,4.5,4.9
			c1.5,1.1,2.5,2.4,3.1,4.1c0.3,0.7,0.7,1.4,1.1,2c0.5,0.8,1.3,1.1,2.2,0.9c2.5-0.6,4.4-2.2,5.5-4.6c1.1-2.3,0.4-4.6-0.4-6.8
			c-0.7-2-2.1-3.1-4.1-3.6c-0.7-0.2-1.5-0.4-2.2-0.6c-1.6-0.5-3-1.1-4.3-2.2c-0.3-0.3-0.4-0.6-0.2-1c0.5-1,0.9-2.1,1.4-3.1
			c0.2-0.5,0.5-0.9,0.9-1.2c1.6-1.2,3.1-2.7,4.4-4.3c1.1-1.4,1.1-1.4,2.7-0.7c2.4,1,4.8,1.7,7.4,1.1c2.6-0.6,4.4-2.1,5.1-4.7
			c1-3.5,0.2-6.7-1.8-9.7c-1.1-1.6-2.6-2.6-4.5-3c-1.6-0.3-3.2,0-4.7,0.5c-0.6,0.2-0.7,0-0.9-0.5c-0.7-1.7-1.4-3.3-2.2-4.9
			C69,28.2,69,28,69.4,27.7c0.6-0.4,1.2-0.8,1.8-1.2c1.3-0.9,2.3-2,2.9-3.6c0.1-0.3,0.5-0.5,0.7-0.7c0.8-0.5,1.6-1,2.3-1.6
			c1.3-1.1,1.2-2.5-0.2-3.4c-0.1-0.1-0.2-0.2-0.2-0.2c0-0.1,0-0.1,0-0.2c0.7-0.9,0.8-1.8,0.2-2.7c-0.6-0.9-1.5-0.9-2.3-0.6
			c-0.5,0.1-0.6-0.1-0.7-0.6c-0.1-0.8-0.5-1.5-1.3-1.7c-0.8-0.2-1.5,0.1-2,0.7c-0.2,0.2-0.4,0.4-0.7,0.7c-0.2-0.2-0.3-0.3-0.3-0.4
			c-1-1.2-2.4-1-3.1,0.5c-0.1,0.3-0.3,0.6-0.3,1c-0.2,1.2-0.6,2.1-1.4,3.1c-1,1.3-1.8,2.9-2.6,4.4c-0.3,0.5-0.5,0.7-1.1,0.4
			c-4.7-2.5-9.7-3.1-14.8-2.5c-2.1,0.3-4.1,0.9-6,1.7c-0.5,0.2-0.8,0.1-1.1-0.3c-0.6-0.9-1.2-1.8-1.8-2.7c-0.6-0.8-1.3-1.5-1.9-2.3
			c-0.2-0.3-0.5-0.7-0.7-1c-0.4-0.8-0.6-1.7-1-2.4c-0.7-1.1-1.9-1.1-2.6-0.1c-0.5,0.7-0.8,0.6-1.3,0.1c-0.6-0.6-1.3-0.8-2.1-0.5
			c-0.8,0.3-1.1,1-1.1,1.8c0,0.6-0.2,0.7-0.8,0.7c-1.1-0.1-1.8,0.2-2.2,1.1c-0.4,0.8-0.2,1.6,0.4,2.3c0.2,0.3,0.5,0.5,0,0.8
			c-1.2,0.8-1.2,2.4,0.3,3.4c0.8,0.5,1.6,0.9,2.4,1.3c0.3,0.2,0.6,0.4,0.7,0.6c0.8,1.5,2,2.5,3.3,3.2C32,27,32,27,31.5,27.7
			c-1.7,2.3-2.9,4.8-3.5,7.7c-0.4,1.8-0.4,1.8-2.2,1.5c-3-0.4-5.7,0.2-7.5,2.9c-1.8,2.5-2.4,5.3-1.9,8.4
			C16.6,50,17.3,51.7,18.7,52.9z M32.6,73.5c-0.7,1.1-1.6,1.3-2.8,0.9c-2.6-1-3.9-3.9-3.1-6.6c0.5-1.6,1.2-3.1,2.7-4
			c1.3-0.8,2.6-0.6,3.4,0.8c0.5,0.9,0.8,2,1.1,3C34.1,69.7,33.8,71.7,32.6,73.5z M64.6,68.5c0.2-1,0.7-1.9,1.2-2.7
			c0.8-1.2,1.7-1.3,2.9-0.6c1.8,1.1,2.5,2.8,2.9,4.5c0.4,3-0.9,5.4-3.3,6.3c-1.2,0.4-2,0.3-2.7-0.8C64.2,73,64,70.8,64.6,68.5z
			 M67.3,17.3c-0.1-1.3-0.2-2.6-0.2-3.9c0-0.6,0.3-1.2,1-1.3c0.7-0.1,1,0.4,1.2,0.9c0.2,0.3,0.3,0.7,0.4,1.1c0.1,0,0.2,0.1,0.3,0.2
			c0.3-0.5,0.6-1.1,1-1.6c0.4-0.5,0.9-1,1.6-0.7c0.6,0.2,0.9,0.9,0.7,1.8c-0.1,0.5-0.2,0.9-0.4,1.4c0.7-0.3,1.3-0.7,2-0.9
			c0.5-0.2,1.1-0.2,1.5,0.3c0.4,0.6,0.3,1.2-0.1,1.7C76,16.6,75.5,17,75,17.6c0.5,0.1,0.9,0.1,1.3,0.2c0.4,0.2,0.8,0.5,0.9,0.9
			c0.1,0.3-0.1,0.9-0.4,1.2c-1.3,1.1-2.9,1.8-4.6,2.2c-0.6,0.2-0.9-0.2-0.8-0.8c0.1-0.5,0.2-1,0.3-1.4c0.1-0.6-0.2-0.7-0.7-0.6
			c-1.4,0.3-1.4,0.3-1.5-1.1c0-0.6-0.3-0.7-0.8-0.5c-0.2,0.1-0.4,0.2-0.6,0.2C67.7,18,67.3,17.8,67.3,17.3z M71.6,43.4
			c0.2-0.6,0.5-0.4,0.8-0.3c1.6,0.5,3.5,0.1,4.7-1.1c-1.2,0.4-2.3,0.8-3.6,0.5c-0.2,0-0.4-0.1-0.6-0.2c-0.7-0.2-1-0.6-0.9-1.4
			c0.1-1.1,0.1-2.2,0.1-3.2c0-0.6,0.2-0.9,0.6-1.2c2.6-1.6,5.4-0.6,6.8,2.1c0.7,1.5,1.1,3,1,4.6c-0.2,1.5-0.9,2.5-2.1,3.3
			c-2.3,1.5-5.1,1.4-7.2-0.2c-0.2-0.1-0.3-0.5-0.3-0.7C71.1,44.9,71.3,44.2,71.6,43.4z M30.6,19.3c-0.7-0.1-0.9,0.1-0.7,0.8
			c0.1,0.4,0.3,0.9,0.4,1.3c0.1,0.5-0.1,0.9-0.7,0.8c-1.8-0.3-3.5-0.7-4.9-1.8c-0.8-0.6-0.6-1.6,0.3-2c0.4-0.2,0.9-0.3,1.3-0.4
			c0.1-0.1,0.1-0.2,0.2-0.3c-0.3-0.1-0.6-0.2-0.8-0.4c-0.4-0.3-0.8-0.7-1-1.1c-0.1-0.3-0.1-0.9,0.1-1.2c0.2-0.3,0.8-0.5,1.1-0.5
			c0.7,0.1,1.5,0.4,2.2,0.7c-0.2-0.5-0.3-1-0.4-1.4c-0.2-0.7-0.1-1.4,0.5-1.7c0.7-0.4,1.2,0.1,1.6,0.5c0.5,0.4,0.9,0.9,1.4,1.5
			c0.1-0.5,0.2-0.8,0.3-1.2c0.2-0.5,0.5-1.1,1.1-1.1c0.7,0,1.1,0.4,1.2,1c0.2,1.4,0.2,2.8,0.3,4.2c0,0.6-0.5,0.6-1,0.5
			c-1.3-0.3-1.3-0.3-1.1,1c0.1,0.8,0,1-0.9,0.8C30.9,19.3,30.8,19.3,30.6,19.3z M32.1,39.9C32,37.9,32.8,36.3,34,35
			c0.5-0.5,0.4-0.8,0-1.3c-0.8-1.2-1.4-2.5-2.1-3.7c-0.3-0.5-0.1-1,0.2-1.5c3.1-3.9,7.1-6.6,11.8-7.9c4.4-1.2,8.8-1.2,13.2,0.2
			c4.9,1.6,8.8,4.5,11.6,8.9c0.3,0.4,0.3,1,0.4,1.5c0.1,1.2-0.2,2.4-1,3.3c-0.6,0.8-0.6,1.4-0.3,2.3c1.1,3.2,0.6,6.3-1.5,8.8
			C62.6,50,55.9,51,51.4,46.2c-0.3-0.4-0.7-0.7-1.1-1c-0.9,0.8-1.7,1.7-2.7,2.4c-4.1,3.2-9.5,2.7-12.9-1.3
			C33.1,44.4,32.1,42.4,32.1,39.9z M19.7,46.1c-0.2-2.3,0.3-4.3,2-5.9c1.4-1.4,3.7-1.6,5.4-0.5c0.2,0.1,0.4,0.4,0.4,0.7
			c0.2,1.3,0.5,2.6,0.6,3.9c0,0.2-0.2,0.7-0.5,0.8c-1.2,0.7-2.6,0.9-4,0.5c-0.2,0-0.4-0.1-0.6-0.2c1.5,1,3.1,1.4,4.8,0.6
			c0.5-0.3,0.8-0.2,1,0.4c0.2,0.7,0.6,1.3,0.9,1.9c0.1,0.2,0.1,0.6-0.1,0.7c-2,1.8-4.2,2.4-6.8,1.4C20.9,49.7,19.8,48.3,19.7,46.1z"
			/>
	</g>
</g>
<g>
</g>
<g>
</g>
<g>
</g>
<g>
</g>
<g>
</g>
<g>
</g>
</svg>
