<?xml version="1.0" encoding="utf-8"?>
<!-- Generator: Adobe Illustrator 24.0.1, SVG Export Plug-In . SVG Version: 6.00 Build 0)  -->
<svg version="1.1" id="Layer_1" xmlns="http://www.w3.org/2000/svg" xmlns:xlink="http://www.w3.org/1999/xlink" x="0px" y="0px"
	 width="100px" height="100px" viewBox="0 0 100 100" style="enable-background:new 0 0 100 100;" xml:space="preserve">
<g>
	<path d="M83.4,75.2c-1,2.4-3.8,4-6,5.2c-2.9,1.5-5.8,2.4-9.2,2.4c-4.6,0-8.7-1.9-12.9-3.3c-3-1.1-5.9-2.4-8.7-4.1
		c-8.4-5.1-18.5-15-23.7-23.3c-1.7-2.6-3-5.5-4.1-8.5c-1.5-4.1-3.4-8.2-3.4-12.7c0-3.2,0.9-6.2,2.5-9c1.2-2.2,2.8-4.9,5.2-6
		c1.6-0.8,5.1-1.5,6.9-1.5c0.3,0,0.7,0,1,0.1c1,0.3,2.1,2.8,2.6,3.6c1.5,2.8,3.1,5.6,4.7,8.3c0.8,1.2,2.2,2.9,2.2,4.3
		c0,3-8.9,7.3-8.9,9.9c0,1.3,1.2,3,1.9,4.2c5,8.8,11.2,14.9,20.1,19.8c1.2,0.7,2.9,1.9,4.2,1.9c2.7,0,7-8.8,10-8.8
		c1.5,0,3.1,1.4,4.4,2.2c2.7,1.7,5.7,3.1,8.4,4.6c1,0.4,3.4,1.5,3.8,2.5c0.2,0.3,0.2,0.7,0.2,1C84.9,70.2,84.1,73.6,83.4,75.2z"/>
</g>
<g>
</g>
<g>
</g>
<g>
</g>
<g>
</g>
<g>
</g>
</svg>
