<?xml version="1.0" encoding="utf-8"?>
<!-- Generator: Adobe Illustrator 24.0.1, SVG Export Plug-In . SVG Version: 6.00 Build 0)  -->
<svg version="1.1" id="Layer_1" xmlns="http://www.w3.org/2000/svg" xmlns:xlink="http://www.w3.org/1999/xlink" x="0px" y="0px"
	 width="100px" height="100px" viewBox="0 0 100 100" style="enable-background:new 0 0 100 100;" xml:space="preserve">
<path d="M87.1,58.8c-0.2,0.4-0.6,0.5-1,0.7H86c-0.4,0-0.7-0.1-1-0.4L50.1,24.9L15.3,59.1c-0.3,0.3-0.7,0.5-1.2,0.4
	c-0.4,0-0.8-0.3-1-0.7l-3.1-4.4c-0.5-0.8-0.4-2,0.2-2.7l36.1-35.5c2.1-2,5.5-2,7.7,0l12.3,12.1V16.8c0-1.1,0.7-1.9,1.6-1.9h9.7
	c0.9,0,1.6,0.8,1.6,1.9v24.1l11,10.8c0.6,0.7,0.7,1.9,0.2,2.7L87.1,58.8z M79,86.9c0,2-1.5,3.8-3.2,3.8H56.5V67.9H43.6v22.7H24.3
	c-1.8,0-3.2-1.7-3.2-3.8V58.5c0-0.1,0-0.3,0-0.4l29-28.1l28.9,28.1c0,0.1,0,0.3,0,0.4v28.4H79z"/>
<g>
</g>
<g>
</g>
<g>
</g>
<g>
</g>
<g>
</g>
</svg>
