<?xml version="1.0" encoding="utf-8"?>
<!-- Generator: Adobe Illustrator 24.0.1, SVG Export Plug-In . SVG Version: 6.00 Build 0)  -->
<svg version="1.1" id="Layer_1" xmlns="http://www.w3.org/2000/svg" xmlns:xlink="http://www.w3.org/1999/xlink" x="0px" y="0px"
	 width="100px" height="100px" viewBox="0 0 100 100" style="enable-background:new 0 0 100 100;" xml:space="preserve">
<path d="M83.4,57.8L90,22c0.5-2.6-1.1-5-3.3-5H31.5l-1.3-7.7C29.9,7.4,28.5,6,26.9,6H12.5c-1.9,0-3.4,1.8-3.4,4.1v2.8
	c0,2.3,1.5,4.1,3.4,4.1h9.8L32.2,76c-2.4,1.7-4,4.8-4,8.4c0,5.3,3.5,9.6,7.9,9.6s7.9-4.3,7.9-9.6c0-2.7-0.9-5.1-2.4-6.9h29.5
	c-1.5,1.7-2.4,4.2-2.4,6.9c0,5.3,3.5,9.6,7.9,9.6s7.9-4.3,7.9-9.6c0-3.8-1.8-7.1-4.4-8.7l0.8-4.2c0.5-2.6-1.1-5-3.3-5H39.8L38.8,61
	h41.2C81.7,61,83,59.7,83.4,57.8z"/>
<g>
</g>
<g>
</g>
<g>
</g>
<g>
</g>
<g>
</g>
</svg>
