<?xml version="1.0" encoding="utf-8"?>
<!-- Generator: Adobe Illustrator 24.0.1, SVG Export Plug-In . SVG Version: 6.00 Build 0)  -->
<svg version="1.1" id="Layer_1" xmlns="http://www.w3.org/2000/svg" xmlns:xlink="http://www.w3.org/1999/xlink" x="0px" y="0px"
	 width="100px" height="100px" viewBox="0 0 100 100" style="enable-background:new 0 0 100 100;" xml:space="preserve">
<path d="M75.8,80.3H62.3c-1.1,0-1.9-0.9-1.9-1.9v-6.5c0-1.1,0.9-1.9,1.9-1.9h13.5c2.9,0,5.2-2.3,5.2-5.2v-31c0-2.9-2.3-5.2-5.2-5.2
	H62.3c-1.1,0-1.9-0.9-1.9-1.9v-6.5c0-1.1,0.9-1.9,1.9-1.9h13.5c8.6,0,15.5,6.9,15.5,15.5v31C91.4,73.4,84.4,80.3,75.8,80.3z
	 M68.3,47.9L41.1,20.7c-2.4-2.4-6.6-0.7-6.6,2.7v15.5h-22c-2.1,0-3.9,1.7-3.9,3.9v15.6c0,2.1,1.7,3.9,3.9,3.9h22v15.5
	c0,3.5,4.2,5.2,6.6,2.7l27.2-27.1C69.8,51.9,69.8,49.4,68.3,47.9z"/>
</svg>
