<?xml version="1.0" encoding="utf-8"?>
<!-- Generator: Adobe Illustrator 24.0.1, SVG Export Plug-In . SVG Version: 6.00 Build 0)  -->
<svg version="1.1" id="Layer_1" xmlns="http://www.w3.org/2000/svg" xmlns:xlink="http://www.w3.org/1999/xlink" x="0px" y="0px"
	 width="100px" height="100px" viewBox="0 0 100 100" style="enable-background:new 0 0 100 100;" xml:space="preserve">
<path d="M50,11.4c0.1,0.8,2.5,15.1,2.5,20.6c0,8.4-4.3,14.3-10.6,16.7l2,38.1c0.1,2.2-1.6,4.1-3.7,4.1h-9.8c-2.1,0-3.8-1.8-3.7-4.1
	l2-38.1c-6.3-2.4-10.6-8.4-10.6-16.7c0-5.5,2.3-19.9,2.5-20.6c0.5-3.3,6.9-3.3,7.3,0.2v22.6c0.2,0.5,2.3,0.5,2.5,0
	c0.2-4.1,1.2-22.3,1.2-22.7c0.5-3.3,6.9-3.3,7.3,0c0,0.4,1,18.7,1.2,22.7c0.1,0.5,2.3,0.5,2.5,0V11.6C43,8.2,49.5,8.2,50,11.4z
	 M68.3,57.2L66,86.8c-0.2,2.2,1.5,4.2,3.7,4.2h8.6c2,0,3.7-1.7,3.7-3.8V12.9c0-2.1-1.6-3.8-3.7-3.8C65.6,9,44.3,37.6,68.3,57.2
	L68.3,57.2z"/>
<g>
</g>
<g>
</g>
<g>
</g>
<g>
</g>
<g>
</g>
</svg>
